<?xml version="1.0" encoding="utf-8"?>
<!-- Generator: Adobe Illustrator 16.0.0, SVG Export Plug-In . SVG Version: 6.00 Build 0)  -->
<!DOCTYPE svg PUBLIC "-//W3C//DTD SVG 1.1//EN" "http://www.w3.org/Graphics/SVG/1.1/DTD/svg11.dtd">
<svg version="1.1" id="Dribbble" xmlns="http://www.w3.org/2000/svg" xmlns:xlink="http://www.w3.org/1999/xlink" x="0px" y="0px"
	 width="563.009px" height="563.04px" viewBox="24.511 114.48 563.009 563.04"
	 enable-background="new 24.511 114.48 563.009 563.04" xml:space="preserve">
<path d="M292.689,317.083c-41.555-73.868-86.017-134.12-89.26-138.557c-67.044,31.702-117.076,93.483-132.712,167.902
	C77.02,346.55,177.266,347.744,292.689,317.083z M322.616,397.866c3.121-1.01,6.304-1.958,9.455-2.876
	c-6.028-13.678-12.607-27.387-19.492-40.882C188.771,391.196,69.982,388.503,65.79,388.381c-0.092,2.57-0.214,5.08-0.214,7.649
	c0,61.782,23.348,118.146,61.69,160.712l-0.153-0.184C127.112,556.559,192.902,439.85,322.616,397.866z M158.232,585.536v-0.122
	c-1.774-1.377-3.672-2.632-5.447-4.131C156.029,583.884,158.232,585.536,158.232,585.536z M248.411,162.583
	c-0.214,0.062-0.459,0.123-0.459,0.123c0.184-0.061,0.429-0.061,0.429-0.061L248.411,162.583z M464.783,215.583
	c-42.351-37.271-97.89-60.007-158.783-60.007c-19.553,0-38.495,2.387-56.671,6.763c3.672,4.896,48.807,64.841,89.903,140.271
	C429.869,268.673,464.11,216.562,464.783,215.583z M306,677.52c-155.448,0-281.489-126.041-281.489-281.489
	C24.48,240.521,150.521,114.48,306,114.48c155.509,0,281.52,126.042,281.52,281.55C587.52,551.479,461.509,677.52,306,677.52z
	 M346.882,435.352c-141.097,49.174-187.701,148.043-188.649,150.062c40.821,31.854,91.984,50.979,147.737,50.979
	c33.293,0,65.025-6.763,93.85-19.003c-3.55-21.083-17.533-94.737-51.377-182.59C347.952,434.984,347.433,435.168,346.882,435.352z
	 M357.714,338.472c5.631,11.414,10.955,23.072,16.004,34.853c1.806,4.131,3.488,8.323,5.202,12.424
	c83.018-10.465,164.781,7.283,167.474,7.833c-0.581-57.008-20.991-109.303-54.683-150.307
	C491.16,243.979,452.574,299.671,357.714,338.472z M393.547,423.693c31.549,86.781,44.339,157.345,46.787,171.696
	c53.979-36.444,92.351-94.248,103.03-161.262C538.591,432.598,471.271,411.27,393.547,423.693z"/>
</svg>
