<?xml version="1.0" encoding="utf-8"?>
<!-- Generator: Adobe Illustrator 16.0.0, SVG Export Plug-In . SVG Version: 6.00 Build 0)  -->
<!DOCTYPE svg PUBLIC "-//W3C//DTD SVG 1.1//EN" "http://www.w3.org/Graphics/SVG/1.1/DTD/svg11.dtd">
<svg version="1.1" id="Google_x2B_" xmlns="http://www.w3.org/2000/svg" xmlns:xlink="http://www.w3.org/1999/xlink" x="0px"
	 y="0px" width="549.607px" height="538.561px" viewBox="31.793 126.72 549.607 538.561"
	 enable-background="new 31.793 126.72 549.607 538.561" xml:space="preserve">
<path fill="#FFFFFF" d="M60.863,261.023c0,45.716,15.27,78.703,45.349,98.073c24.664,15.912,53.244,18.298,68.116,18.298
	c3.611,0,6.518-0.184,8.538-0.306c0,0-4.712,30.722,18.054,61.078h-1.04c-39.443,0-168.086,8.231-168.086,114.046
	c0,107.59,118.146,113.067,141.861,113.067c1.867,0,2.968-0.062,2.968-0.062c0.245,0,1.928,0.062,4.835,0.062
	c15.208,0,54.529-1.897,91.035-19.676c47.369-22.95,71.39-63.006,71.39-118.881c0-53.979-36.598-86.108-63.312-109.609
	c-16.31-14.352-30.417-26.714-30.417-38.74c0-12.24,10.312-21.451,23.317-33.109c21.083-18.819,40.973-45.655,40.973-96.39
	c0-44.584-5.783-74.542-41.432-93.544c3.703-1.897,16.861-3.274,23.348-4.192c19.309-2.631,47.552-5.63,47.552-21.389v-3.03H203.184
	C201.776,126.781,60.863,131.983,60.863,261.023z M288.038,536.821c2.693,43.023-34.119,74.756-89.413,78.765
	c-56.151,4.131-102.357-21.145-105.05-64.138c-1.316-20.686,7.772-40.882,25.551-57.008c18.023-16.31,42.779-26.408,69.707-28.397
	c3.183-0.184,6.334-0.367,9.486-0.367C250.308,465.707,285.498,496.246,288.038,536.821z M251.287,231.556
	c13.801,48.593-7.038,99.328-40.27,108.722c-3.825,1.071-7.742,1.591-11.75,1.591c-30.417,0-60.557-30.784-71.757-73.226
	c-6.243-23.745-5.722-44.615,1.438-64.627c7.008-19.737,19.676-32.987,35.588-37.485c3.825-1.071,7.772-1.622,11.781-1.622
	C213.037,164.909,236.661,180.147,251.287,231.556z M489.6,334.8V243H428.4v91.8H336.6V396H428.4v91.8H489.6V396H581.4v-61.2H489.6z
	"/>
</svg>
