<?xml version="1.0" encoding="utf-8"?>
<!-- Generator: Adobe Illustrator 16.0.0, SVG Export Plug-In . SVG Version: 6.00 Build 0)  -->
<!DOCTYPE svg PUBLIC "-//W3C//DTD SVG 1.1//EN" "http://www.w3.org/Graphics/SVG/1.1/DTD/svg11.dtd">
<svg version="1.1" id="LinkedIn" xmlns="http://www.w3.org/2000/svg" xmlns:xlink="http://www.w3.org/1999/xlink" x="0px" y="0px"
	 width="550.8px" height="550.8px" viewBox="30.6 120.6 550.8 550.8" enable-background="new 30.6 120.6 550.8 550.8"
	 xml:space="preserve">
<path fill="#FFFFFF" d="M153,181.8c0,33.66-21.42,61.2-61.2,61.2c-36.72,0-61.2-27.54-61.2-58.14c0-33.66,24.48-64.26,61.2-64.26
	C128.52,120.6,153,148.14,153,181.8z M30.6,671.4H153V273.6H30.6V671.4z M446.76,279.72c-64.26,0-100.979,36.72-116.279,61.2h-3.061
	l-6.12-52.02H211.14c0,33.66,3.06,73.44,3.06,119.34V671.4H336.6V454.14c0-12.239,0-21.42,3.061-30.6
	c9.18-21.42,24.479-48.96,58.14-48.96c42.84,0,61.2,36.72,61.2,85.68V671.4h122.4V444.96C581.4,331.74,523.26,279.72,446.76,279.72z
	"/>
</svg>
