<?xml version="1.0" encoding="utf-8"?>
<!-- Generator: Adobe Illustrator 16.0.0, SVG Export Plug-In . SVG Version: 6.00 Build 0)  -->
<!DOCTYPE svg PUBLIC "-//W3C//DTD SVG 1.1//EN" "http://www.w3.org/Graphics/SVG/1.1/DTD/svg11.dtd">
<svg version="1.1" id="Layer_1" xmlns="http://www.w3.org/2000/svg" xmlns:xlink="http://www.w3.org/1999/xlink" x="0px" y="0px"
	 width="205.167px" height="37.473px" viewBox="68.133 0 205.167 37.473" enable-background="new 68.133 0 205.167 37.473"
	 xml:space="preserve">
<g id="Layer_4" display="none">
	<path display="inline" fill="#FFFFFF" d="M170.148,17.94c-3.716-0.685-5.986-1.312-7.348-2.673c-1.36-1.36-1.988-3.63-2.673-7.348
		c-0.058-0.307-0.321-0.528-0.636-0.528c-0.312,0-0.58,0.225-0.635,0.528c-0.685,3.718-1.312,5.986-2.673,7.348
		c-1.361,1.36-3.633,1.988-7.348,2.673c-0.306,0.059-0.528,0.322-0.528,0.637c0,0.312,0.224,0.579,0.528,0.635
		c3.715,0.685,5.986,1.313,7.348,2.673c1.359,1.36,1.988,3.632,2.673,7.348c0.055,0.307,0.321,0.528,0.635,0.528
		c0.312,0,0.578-0.224,0.636-0.528c0.685-3.716,1.312-5.985,2.673-7.348c1.36-1.357,3.632-1.988,7.348-2.673
		c0.307-0.056,0.528-0.321,0.528-0.635S170.455,17.998,170.148,17.94z"/>
</g>
<g id="Layer_2" display="none">
	<path display="inline" fill="none" stroke="#000000" stroke-width="8" stroke-linecap="round" stroke-miterlimit="10" d="
		M-13.007-45.615C-6.302-55.44-2.382-67.318-2.382-80.111c0-33.843-27.435-61.275-61.277-61.275
		c-33.842,0-61.276,27.435-61.276,61.275c0,33.843,27.435,61.276,61.276,61.276c14.613,0,28.031-5.115,38.562-13.652"/>
</g>
<g>
	<path d="M68.928,0.739h8.53l9.455,15.21l9.455-15.21h8.53V36.71h-7.862V13.226L86.913,28.59h-0.206L76.687,13.381v23.33h-7.759
		V0.739z"/>
	<path d="M113.893,0.739h7.913V36.71h-7.913V0.739z"/>
	<path d="M129.207,18.827v-0.102c0-10.227,7.708-18.603,18.756-18.603c6.782,0,10.842,2.261,14.182,5.55l-5.036,5.807
		c-2.775-2.518-5.601-4.06-9.198-4.06c-6.063,0-10.431,5.036-10.431,11.202v0.104c0,6.166,4.265,11.304,10.431,11.304
		c4.111,0,6.63-1.644,9.456-4.212l5.035,5.087c-3.7,3.956-7.811,6.423-14.747,6.423C137.069,37.326,129.207,29.156,129.207,18.827z"
		/>
	<path d="M168.724,0.739h7.913v15.724l14.594-15.724h9.558l-14.645,15.262l15.312,20.709h-9.506L180.8,21.396l-4.162,4.316V36.71
		h-7.913V0.739z"/>
	<path d="M206.238,0.739h27.133V7.78H214.1v7.296h16.958v7.039H214.1v7.556h19.526v7.04h-27.389V0.739z"/>
	<path d="M250.791,22.528L236.969,0.739h9.25l8.582,14.439l8.734-14.439h8.993l-13.823,21.632V36.71h-7.914V22.528z"/>
</g>
</svg>
