<?xml version="1.0" encoding="utf-8"?>
<!-- Generator: Adobe Illustrator 16.0.0, SVG Export Plug-In . SVG Version: 6.00 Build 0)  -->
<!DOCTYPE svg PUBLIC "-//W3C//DTD SVG 1.1//EN" "http://www.w3.org/Graphics/SVG/1.1/DTD/svg11.dtd">
<svg version="1.1" xmlns="http://www.w3.org/2000/svg" xmlns:xlink="http://www.w3.org/1999/xlink" x="0px" y="0px" width="243px"
	 height="243px" viewBox="0 0 243 243" enable-background="new 0 0 243 243" xml:space="preserve">
<g id="Layer_1" display="none">
	<g id="Layer_1_2_" display="inline">
		<g id="Layer_1_1_">
			<g>
				<path d="M121.5,243C54.505,243,0,188.495,0,121.5S54.505,0,121.5,0S243,54.505,243,121.5S188.495,243,121.5,243z M121.5,18
					C64.43,18,18,64.43,18,121.5C18,178.57,64.43,225,121.5,225c57.07,0,103.5-46.43,103.5-103.5C225,64.43,178.57,18,121.5,18z"/>
			</g>
		</g>
		<g id="Layer_2">
		</g>
	</g>
	<g id="Layer_2_1_" display="inline">
		<g id="Layer_3_2_">
			<path d="M170.268,83.412c-17.787,0-45.289,24.003-53.039,31.11c-0.503,0.299-0.977,0.644-1.414,1.052
				c-14.305,13.359-34.845,27.777-43.081,27.777c-12.046,0-21.847-9.801-21.847-21.847s9.8-21.849,21.847-21.849
				c1.822,0,9.081,0.987,26.084,13.686c1.415,1.059,4.556,3.39,4.556,3.39l12.738-10.572c0,0-5.829-4.529-7.569-5.826
				c-15.24-11.387-26.954-16.912-35.808-16.912c-20.999,0-38.083,17.083-38.083,38.084c0,20.998,17.084,38.082,38.083,38.082
				c17.763,0,45.281-24.002,53.039-31.104c0.502-0.301,0.978-0.649,1.414-1.053c14.297-13.358,34.832-27.782,43.08-27.782
				c12.045,0,21.845,9.8,21.845,21.85c0,12.047-9.8,21.848-21.845,21.848c-1.801,0-8.961-0.968-25.68-13.381
				c-1.408-1.047-4.648-3.544-4.648-3.544l-12.572,10.435c0,0,3.945,3.479,7.539,6.143c15.244,11.318,26.479,16.588,35.361,16.588
				c21,0,38.082-17.087,38.082-38.092C208.354,100.498,191.268,83.412,170.268,83.412z"/>
		</g>
	</g>
</g>
<g id="Layer_2_2_" display="none">
	<g display="inline">
		<path fill="none" stroke="#FFFFFF" stroke-width="14" stroke-linecap="round" stroke-linejoin="round" stroke-miterlimit="10" d="
			M234.809,121.505c0,62.582-50.727,113.309-113.309,113.309c-62.581,0-113.308-50.727-113.308-113.309
			C8.192,58.928,58.919,8.196,121.5,8.196C184.082,8.196,234.809,58.928,234.809,121.505z"/>
		<g>
			
				<line fill="none" stroke="#FFFFFF" stroke-width="14" stroke-linecap="round" stroke-linejoin="round" stroke-miterlimit="10" x1="180.051" y1="60.425" x2="60.709" y2="179.774"/>
			
				<path fill="none" stroke="#FFFFFF" stroke-width="14" stroke-linecap="round" stroke-linejoin="round" stroke-miterlimit="10" d="
				M76.392,163.841c-11.623-11.623,0.481-47.065,29.348-75.921c14.836-14.847,31.08-25.576,40.931-30.458v36.434"/>
			
				<line fill="none" stroke="#FFFFFF" stroke-width="14" stroke-linecap="round" stroke-linejoin="round" stroke-miterlimit="10" x1="114.13" y1="126.431" x2="161.451" y2="126.431"/>
			
				<path fill="none" stroke="#FFFFFF" stroke-width="14" stroke-linecap="round" stroke-linejoin="round" stroke-miterlimit="10" d="
				M94.424,146.137h52.247c-27.596,25.095-60.272,27.865-70.279,17.85"/>
			
				<path fill="none" stroke="#FFFFFF" stroke-width="14" stroke-linecap="round" stroke-linejoin="round" stroke-miterlimit="10" d="
				M180.155,60.228c8.988,9.001,6.919,26.792-4.376,46.498h-42.038"/>
		</g>
	</g>
</g>
<g id="Layer_3">
	<g>
		<path fill="none" stroke="#FFFFFF" stroke-width="15" stroke-linecap="round" stroke-linejoin="round" d="M7.745,121.433
			c0-62.772,50.882-113.652,113.652-113.652c62.782,0,113.651,50.88,113.651,113.652c0,62.771-50.869,113.651-113.651,113.651
			C58.627,235.084,7.745,184.204,7.745,121.433z"/>
		
			<polyline fill="none" stroke="#FFFFFF" stroke-width="15" stroke-linecap="round" stroke-linejoin="round" stroke-miterlimit="10" points="
			146.773,71.249 81.198,121.424 146.773,171.539 		"/>
	</g>
</g>
</svg>
