<?xml version="1.0" encoding="utf-8"?>
<!-- Generator: Adobe Illustrator 16.0.0, SVG Export Plug-In . SVG Version: 6.00 Build 0)  -->
<!DOCTYPE svg PUBLIC "-//W3C//DTD SVG 1.1//EN" "http://www.w3.org/Graphics/SVG/1.1/DTD/svg11.dtd">
<svg version="1.1" id="Layer_1" xmlns="http://www.w3.org/2000/svg" xmlns:xlink="http://www.w3.org/1999/xlink" x="0px" y="0px"
	 width="22.443px" height="18px" viewBox="0 0 22.443 18" enable-background="new 0 0 22.443 18" xml:space="preserve">
<g>
	<path fill="#FFFFFF" d="M22.444,2.334c-0.813,0.363-1.5,0.375-2.228,0.016c0.938-0.562,0.98-0.957,1.32-2.019
		c-0.878,0.521-1.852,0.9-2.887,1.104C17.823,0.553,16.642,0,15.335,0c-2.51,0-4.544,2.036-4.544,4.544
		c0,0.356,0.04,0.703,0.117,1.036C7.132,5.391,3.783,3.582,1.542,0.832C1.151,1.503,0.927,2.284,0.927,3.117
		c0,1.577,0.803,2.967,2.021,3.782C2.203,6.875,1.503,6.671,0.891,6.331C0.89,6.35,0.89,6.368,0.89,6.388
		c0,2.202,1.566,4.038,3.646,4.456c-0.666,0.182-1.368,0.209-2.054,0.078c0.579,1.805,2.258,3.119,4.245,3.156
		C4.783,15.602,2.372,16.236,0,15.959C2.012,17.248,4.399,18,6.966,18c8.358,0,12.928-6.924,12.928-12.929
		c0-0.198-0.003-0.393-0.012-0.588C20.769,3.843,21.835,3.246,22.444,2.334z"/>
</g>
</svg>
