<?xml version="1.0" encoding="utf-8"?>
<!-- Generator: Adobe Illustrator 16.0.0, SVG Export Plug-In . SVG Version: 6.00 Build 0)  -->
<!DOCTYPE svg PUBLIC "-//W3C//DTD SVG 1.1//EN" "http://www.w3.org/Graphics/SVG/1.1/DTD/svg11.dtd">
<svg version="1.1" id="Layer_1" xmlns="http://www.w3.org/2000/svg" xmlns:xlink="http://www.w3.org/1999/xlink" x="0px" y="0px"
	 width="65px" height="65px" viewBox="0 0 65 65" enable-background="new 0 0 65 65" xml:space="preserve">
<g>
	<g>
		<path fill="#FFFFFF" d="M1.918,16.517l28.657,12.657c1.097,0.373,2.565,0.326,3.534,0l29.158-12.657
			c1.731-0.611,1.731-2.798,0-3.535L34.109,0.825c-0.969-0.403-2.688-0.416-3.534,0L1.918,12.982C0,13.797,0,15.484,1.918,16.517z
			 M63.268,30.482l-6.42-2.678l-22.736,9.87c-1.217,0.471-2.36,0.436-3.535,0L8.23,27.804l-6.311,2.678
			C0,31.297,0,33.125,1.918,34.018l28.657,12.656c1.112,0.373,2.3,0.436,3.534,0l29.158-12.656C65,33.062,65,31.516,63.268,30.482z
			 M63.268,48.197l-6.42-2.678l-22.738,9.869c-1.216,0.471-2.359,0.437-3.534,0L8.229,45.52l-6.311,2.679
			C0,49.012,0,50.84,1.918,51.732l28.657,12.656c1.112,0.372,2.3,0.436,3.534,0l29.158-12.656C65,50.777,65,49.23,63.268,48.197z"/>
	</g>
</g>
</svg>
