<?xml version="1.0" encoding="utf-8"?>
<!-- Generator: Adobe Illustrator 16.0.0, SVG Export Plug-In . SVG Version: 6.00 Build 0)  -->
<!DOCTYPE svg PUBLIC "-//W3C//DTD SVG 1.1//EN" "http://www.w3.org/Graphics/SVG/1.1/DTD/svg11.dtd">
<svg version="1.1" id="Layer_1" xmlns="http://www.w3.org/2000/svg" xmlns:xlink="http://www.w3.org/1999/xlink" x="0px" y="0px"
	 width="32px" height="27.448px" viewBox="0 4.552 32 27.448" enable-background="new 0 4.552 32 27.448" xml:space="preserve">
<g>
	<g>
		<path fill="#FFFFFF" d="M23,6.552c3.718,0,6.917,3.351,6.984,7.316l0.003,0.124c-0.013,0.092-0.023,0.191-0.03,0.318
			c-0.354,9.597-11.31,14.476-14.077,15.556c-2.74-1.089-13.503-5.973-13.842-15.59c-0.004-0.092-0.013-0.178-0.024-0.27
			l0.002-0.138C2.083,9.902,5.282,6.552,9,6.552c2.053,0,4.022,1.049,5.404,2.878L16,11.542l1.596-2.112
			C18.978,7.601,20.947,6.552,23,6.552 M23,4.552c-2.844,0-5.35,1.488-7,3.672c-1.65-2.184-4.156-3.672-7-3.672
			c-4.918,0-8.9,4.374-8.984,9.282H0c0,0.03,0.006,0.058,0.006,0.088C0.006,13.944,0,13.966,0,13.99c0,0.138,0.034,0.242,0.04,0.374
			C0.48,26.872,15.874,32,15.874,32s15.62-5.122,16.082-17.616C31.964,14.244,32,14.134,32,13.99c0-0.024-0.006-0.046-0.006-0.068
			c0-0.032,0.006-0.058,0.006-0.088h-0.016C31.9,8.926,27.918,4.552,23,4.552L23,4.552z"/>
	</g>
</g>
</svg>
