<?xml version="1.0" encoding="utf-8"?>
<!-- Generator: Adobe Illustrator 16.0.0, SVG Export Plug-In . SVG Version: 6.00 Build 0)  -->
<!DOCTYPE svg PUBLIC "-//W3C//DTD SVG 1.1//EN" "http://www.w3.org/Graphics/SVG/1.1/DTD/svg11.dtd">
<svg version="1.1" id="Layer_1" xmlns="http://www.w3.org/2000/svg" xmlns:xlink="http://www.w3.org/1999/xlink" x="0px" y="0px"
	 width="84.531px" height="103.683px" viewBox="2.5 1.329 84.531 103.683" enable-background="new 2.5 1.329 84.531 103.683"
	 xml:space="preserve">
<g>
	<path fill="#222222" d="M26.735,96.608h14.873C39.509,60.186,25.116,27.063,2.5,1.329c15.568,24.519,24.591,53.605,24.591,84.803
		C27.091,89.658,26.963,93.143,26.735,96.608"/>
	<path fill="#222222" d="M77.009,37.231c0,0-4.67,6.455-17.854,7.417c-13.184,0.96-16.481,13.186-17.447,17.031
		c-0.958,3.843-4.751,4.859-4.751,4.859l0.357,1.424c0,0,4.277-1.463,5.629-4.225c1.358-2.77,5.497,1.747,14.422-2.77
		C66.297,56.458,75.773,48.631,77.009,37.231"/>
	<path fill="#222222" d="M37.315,67.962c0,0,5.22,4.838,8.518,5.805C49.128,74.729,78.796,75,87.031,104.94
		c0,0.688-2.192-3.705-17.988-5.903c-15.796-2.195-23.21-9.342-25.271-23.623c0,0-2.674-4.041-5.663-4.041
		C37.315,72.171,37.315,67.962,37.315,67.962"/>
</g>
</svg>
