<?xml version="1.0" encoding="utf-8"?>
<!-- Generator: Adobe Illustrator 16.0.0, SVG Export Plug-In . SVG Version: 6.00 Build 0)  -->
<!DOCTYPE svg PUBLIC "-//W3C//DTD SVG 1.1//EN" "http://www.w3.org/Graphics/SVG/1.1/DTD/svg11.dtd">
<svg version="1.1" id="Layer_1" xmlns="http://www.w3.org/2000/svg" xmlns:xlink="http://www.w3.org/1999/xlink" x="0px" y="0px"
	 width="205.167px" height="37.473px" viewBox="0 0 205.167 37.473" enable-background="new 0 0 205.167 37.473"
	 xml:space="preserve">
<g id="Layer_4" display="none">
	<path display="inline" fill="#FFFFFF" d="M170.148,17.94c-3.716-0.685-5.986-1.312-7.348-2.673c-1.36-1.359-1.988-3.63-2.674-7.348
		c-0.058-0.308-0.32-0.528-0.635-0.528c-0.312,0-0.58,0.226-0.636,0.528c-0.685,3.718-1.312,5.986-2.673,7.348
		c-1.361,1.36-3.633,1.988-7.348,2.673c-0.307,0.06-0.528,0.322-0.528,0.638c0,0.312,0.224,0.579,0.528,0.635
		c3.715,0.685,5.986,1.312,7.348,2.673c1.359,1.36,1.988,3.632,2.673,7.348c0.056,0.308,0.321,0.528,0.636,0.528
		c0.311,0,0.577-0.224,0.635-0.528c0.686-3.716,1.312-5.984,2.674-7.348c1.359-1.357,3.632-1.988,7.348-2.673
		c0.307-0.056,0.527-0.321,0.527-0.635C170.675,18.263,170.455,17.998,170.148,17.94z"/>
</g>
<g id="Layer_2" display="none">
	<path display="inline" fill="none" stroke="#000000" stroke-width="8" stroke-linecap="round" stroke-miterlimit="10" d="
		M-13.007-45.615C-6.302-55.44-2.382-67.318-2.382-80.111c0-33.843-27.435-61.274-61.277-61.274
		c-33.842,0-61.276,27.435-61.276,61.274c0,33.843,27.435,61.276,61.276,61.276c14.613,0,28.031-5.115,38.562-13.652"/>
</g>
<g>
	<path fill="#FFFFFF" d="M0,0.74h8.53l9.455,15.21L27.44,0.74h8.53V36.71h-7.862V13.226L17.985,28.59h-0.206L7.759,13.381v23.33H0
		V0.74z"/>
	<path fill="#FFFFFF" d="M44.965,0.74h7.913V36.71h-7.913V0.74z"/>
	<path fill="#FFFFFF" d="M60.279,18.827v-0.103c0-10.227,7.709-18.603,18.756-18.603c6.783,0,10.842,2.261,14.183,5.55l-5.036,5.807
		c-2.775-2.518-5.602-4.06-9.197-4.06c-6.063,0-10.432,5.036-10.432,11.202v0.104c0,6.166,4.266,11.304,10.432,11.304
		c4.11,0,6.629-1.644,9.455-4.212l5.035,5.087c-3.699,3.956-7.811,6.424-14.746,6.424C68.141,37.326,60.279,29.156,60.279,18.827z"
		/>
	<path fill="#FFFFFF" d="M99.796,0.74h7.912v15.724L122.303,0.74h9.558l-14.645,15.262l15.312,20.709h-9.506l-11.15-15.314
		l-4.162,4.316V36.71h-7.913L99.796,0.74L99.796,0.74z"/>
	<path fill="#FFFFFF" d="M137.31,0.74h27.133v7.041h-19.271v7.296h16.958v7.039h-16.958v7.556h19.526v7.04H137.31V0.74L137.31,0.74z
		"/>
	<path fill="#FFFFFF" d="M181.863,22.528L168.041,0.74h9.25l8.582,14.438l8.734-14.438h8.994l-13.824,21.632V36.71h-7.914V22.528z"
		/>
</g>
</svg>
