<?xml version="1.0" encoding="utf-8"?>
<!-- Generator: Adobe Illustrator 16.0.0, SVG Export Plug-In . SVG Version: 6.00 Build 0)  -->
<!DOCTYPE svg PUBLIC "-//W3C//DTD SVG 1.1//EN" "http://www.w3.org/Graphics/SVG/1.1/DTD/svg11.dtd">
<svg version="1.1" id="Pinterest" xmlns="http://www.w3.org/2000/svg" xmlns:xlink="http://www.w3.org/1999/xlink" x="0px" y="0px"
	 width="476.093px" height="612.013px" viewBox="67.956 89.987 476.093 612.013"
	 enable-background="new 67.956 89.987 476.093 612.013" xml:space="preserve">
<path d="M263.68,494.746C247.584,579.019,227.97,659.803,169.799,702c-17.932-127.357,26.347-222.982,46.94-324.513
	c-35.098-59.058,4.223-177.847,78.183-148.563c91.035,35.986-78.826,219.463,35.19,242.413
	c119.064,23.898,167.657-206.55,93.819-281.489c-106.642-108.263-310.468-2.54-285.376,152.449
	c6.089,37.883,45.227,49.358,15.637,101.653c-68.269-15.116-88.648-68.973-86.017-140.76
	c4.223-117.504,105.54-199.727,207.192-211.14c128.551-14.413,249.207,47.216,265.884,168.116
	c18.758,136.506-58.018,284.366-195.504,273.717C308.479,530.977,292.873,512.494,263.68,494.746z"/>
</svg>
