<?xml version="1.0" encoding="utf-8"?>
<!-- Generator: Adobe Illustrator 16.0.0, SVG Export Plug-In . SVG Version: 6.00 Build 0)  -->
<!DOCTYPE svg PUBLIC "-//W3C//DTD SVG 1.1//EN" "http://www.w3.org/Graphics/SVG/1.1/DTD/svg11.dtd">
<svg version="1.1" id="Layer_1" xmlns="http://www.w3.org/2000/svg" xmlns:xlink="http://www.w3.org/1999/xlink" x="0px" y="0px"
	 width="40.095px" height="35.805px" viewBox="0 0 40.095 35.805" enable-background="new 0 0 40.095 35.805" xml:space="preserve">
<path fill="#FFFFFF" d="M39.896,2.395C39.376,0.963,38.002,0,36.479,0h-0.021h-3.451H3.636C2.138,0,0.772,0.942,0.239,2.345
	C0.08,2.762,0,3.195,0,3.636v12.098l0.138,2.406c0.581,5.473,3.421,10.254,7.816,13.589c0.079,0.061,0.159,0.119,0.239,0.178
	l0.05,0.035c2.356,1.723,4.994,2.889,7.839,3.463c1.313,0.266,2.656,0.4,3.991,0.4c1.232,0,2.471-0.113,3.688-0.34
	c0.146-0.028,0.292-0.056,0.438-0.088c0.041-0.008,0.084-0.024,0.128-0.046c2.724-0.596,5.255-1.731,7.523-3.39l0.05-0.035
	c0.08-0.059,0.16-0.117,0.239-0.178c4.395-3.335,7.235-8.116,7.815-13.589l0.139-2.406V3.636
	C40.095,3.218,40.044,2.803,39.896,2.395z M31.407,14.997l-9.43,9.045c-0.533,0.51-1.218,0.766-1.903,0.766
	c-0.686,0-1.371-0.256-1.903-0.766l-9.432-9.045c-1.096-1.051-1.132-2.791-0.081-3.887c1.051-1.097,2.791-1.132,3.887-0.081
	l7.529,7.22l7.527-7.22c1.096-1.051,2.836-1.015,3.887,0.08C32.539,12.206,32.502,13.945,31.407,14.997z"/>
</svg>
