<?xml version="1.0" encoding="utf-8"?>
<!-- Generator: Adobe Illustrator 16.0.0, SVG Export Plug-In . SVG Version: 6.00 Build 0)  -->
<!DOCTYPE svg PUBLIC "-//W3C//DTD SVG 1.1//EN" "http://www.w3.org/Graphics/SVG/1.1/DTD/svg11.dtd">
<svg version="1.1" id="RSS" xmlns="http://www.w3.org/2000/svg" xmlns:xlink="http://www.w3.org/1999/xlink" x="0px" y="0px"
	 width="465.12px" height="465.12px" viewBox="73.409 163.44 465.12 465.12" enable-background="new 73.409 163.44 465.12 465.12"
	 xml:space="preserve">
<path d="M73.44,163.44v72.43c216.832,0,392.598,175.828,392.598,392.659h72.491C538.529,371.673,330.297,163.44,73.44,163.44z
	 M73.44,308.392v72.492c136.751,0,247.646,110.863,247.646,247.676h72.461C393.547,451.753,250.216,308.392,73.44,308.392z
	 M142.872,489.605c-38.373,0-69.462,31.15-69.462,69.492s31.09,69.462,69.462,69.462c38.372,0,69.431-31.089,69.431-69.462
	C212.303,520.726,181.244,489.605,142.872,489.605z"/>
</svg>
