<?xml version="1.0" encoding="utf-8"?>
<!-- Generator: Adobe Illustrator 16.0.0, SVG Export Plug-In . SVG Version: 6.00 Build 0)  -->
<!DOCTYPE svg PUBLIC "-//W3C//DTD SVG 1.1//EN" "http://www.w3.org/Graphics/SVG/1.1/DTD/svg11.dtd">
<svg version="1.1" id="Layer_1" xmlns="http://www.w3.org/2000/svg" xmlns:xlink="http://www.w3.org/1999/xlink" x="0px" y="0px"
	 width="256px" height="256px" viewBox="0 0 256 256" enable-background="new 0 0 256 256" xml:space="preserve">
<path fill="#FFFFFF" d="M0,0v256h256V0H0z M136.273,145.74v53.086h-16.9v-54.08l-43.94-82.314h20.082l25.847,52.093
	c0.398,0.928,0.862,1.889,1.392,2.883c0.53,0.994,0.994,2.021,1.392,3.082c0.265,0.398,0.464,0.762,0.597,1.094
	c0.132,0.332,0.265,0.629,0.397,0.895c0.663,1.326,1.259,2.618,1.79,3.877s0.994,2.419,1.392,3.479
	c1.06-2.253,2.22-4.673,3.48-7.257c1.259-2.585,2.551-5.269,3.877-8.052l26.244-52.093h18.69L136.273,145.74z"/>
</svg>
